<?xml version="1.0" standalone="no"?><!DOCTYPE svg PUBLIC "-//W3C//DTD SVG 1.1//EN" "http://www.w3.org/Graphics/SVG/1.1/DTD/svg11.dtd"><svg t="1608779067642" class="icon" viewBox="0 0 1024 1024" version="1.1" xmlns="http://www.w3.org/2000/svg" p-id="2663" xmlns:xlink="http://www.w3.org/1999/xlink" width="200" height="200"><defs><style type="text/css"></style></defs><path d="M418.742857 73.142857C349.257143 73.142857 292.571429 129.828571 292.571429 199.314286v73.142857h188.342857c16.457143 0 31.085714 25.6 31.085714 42.057143H199.314286c-69.485714 0-126.171429 56.685714-126.171429 126.171428v166.4c0 69.485714 56.685714 126.171429 126.171429 126.171429h51.2v-117.028572c0-69.485714 54.857143-126.171429 124.342857-126.171428h230.4c69.485714 0 126.171429-56.685714 126.171428-124.342857v-164.571429c0-71.314286-56.685714-128-126.171428-128H418.742857z m-32.914286 71.314286c18.285714 0 31.085714 5.485714 31.085715 31.085714s-14.628571 38.4-31.085715 38.4c-16.457143 0-31.085714-12.8-31.085714-38.4s14.628571-31.085714 31.085714-31.085714z" fill="#3C78AA" p-id="2664"></path><path d="M773.485714 292.571429v117.028571c0 69.485714-54.857143 124.342857-124.342857 126.171429H418.742857c-69.485714 0-126.171429 54.857143-126.171428 124.342857v164.571428c0 69.485714 56.685714 126.171429 126.171428 126.171429h188.342857c69.485714 0 126.171429-56.685714 126.171429-126.171429v-73.142857H543.085714c-16.457143 0-31.085714-25.6-31.085714-42.057143h312.685714c69.485714 0 126.171429-56.685714 126.171429-126.171428v-166.4c0-69.485714-56.685714-126.171429-126.171429-126.171429h-51.2zM351.085714 490.057143z m287.085715 320c16.457143 0 31.085714 12.8 31.085714 38.4 0 16.457143-14.628571 31.085714-31.085714 31.085714-18.285714 0-31.085714-5.485714-31.085715-31.085714s12.8-38.4 31.085715-38.4z" fill="#FDD835" p-id="2665"></path></svg>